<svg xmlns="http://www.w3.org/2000/svg" xmlns:xlink="http://www.w3.org/1999/xlink" width="1920" zoomAndPan="magnify" viewBox="0 0 1440 809.999993" height="1080" preserveAspectRatio="xMidYMid meet" version="1.0"><defs><g/><clipPath id="3ae7dd13c8"><path d="M 67 146 L 1373 146 L 1373 440.933594 L 67 440.933594 Z M 67 146 " clip-rule="nonzero"/></clipPath></defs><rect x="-144" width="1728" fill="#ffffff" y="-80.999999" height="971.999992" fill-opacity="1"/><rect x="-144" width="1728" fill="#ffffff" y="-80.999999" height="971.999992" fill-opacity="1"/><g clip-path="url(#3ae7dd13c8)"><path fill="#000000" d="M 475.765625 147.183594 C 468.445312 150.582031 468.019531 159.617188 474.25 179.492188 C 481.199219 201.65625 482.371094 227.609375 477.785156 257.453125 C 474.324219 279.941406 469.460938 293.308594 451.910156 328.539062 C 447.160156 338.082031 442.886719 346.8125 442.414062 347.941406 C 441.941406 349.070312 440.882812 351.585938 440.066406 353.539062 C 439.246094 355.488281 437.535156 360.195312 436.265625 364 L 433.957031 370.925781 L 432.292969 369.699219 C 426.867188 365.695312 418.984375 365.539062 400.785156 369.066406 C 396.066406 369.980469 389.695312 371.15625 386.625 371.671875 C 383.554688 372.191406 380.941406 372.679688 380.820312 372.757812 C 379.65625 373.476562 356.058594 374.804688 344.453125 374.804688 C 322.992188 374.804688 313.1875 372.671875 292.894531 363.59375 C 267.941406 352.429688 261.589844 353.980469 247.75 374.617188 C 236.308594 391.679688 235.394531 392.359375 211.464844 401.851562 C 208.488281 403.03125 202.851562 405.390625 198.9375 407.101562 C 182.078125 414.449219 173.59375 416.082031 168.285156 413 C 166.304688 411.851562 166.269531 412.058594 168.933594 409.347656 C 180.726562 397.332031 182.953125 381.210938 172.828125 381.152344 C 163.3125 381.105469 155.699219 396.503906 158.59375 409.941406 C 158.75 410.683594 151.285156 415.507812 145.992188 418.085938 C 124.058594 428.761719 95.679688 429.761719 72.320312 420.671875 C 70.164062 419.835938 68.101562 419.058594 67.734375 418.941406 C 67.121094 418.75 67.074219 419.003906 67.175781 421.988281 L 67.28125 425.246094 L 69.109375 425.9375 C 96.390625 436.28125 125.375 435.222656 149.859375 422.996094 C 154.214844 420.820312 160.890625 416.859375 161.289062 416.214844 C 161.40625 416.023438 162.246094 416.433594 163.148438 417.125 C 168.371094 421.109375 176.804688 421.226562 189.359375 417.496094 C 189.929688 417.328125 190.199219 417.40625 190.199219 417.730469 C 190.199219 420.285156 193.289062 423.097656 197.710938 424.570312 C 207.355469 427.789062 220.820312 426.632812 246.527344 420.363281 C 266.859375 415.40625 273.753906 414.511719 289.148438 414.824219 C 301.355469 415.070312 305.097656 415.464844 339.417969 420.09375 C 376.832031 425.144531 388.800781 425.714844 425.964844 424.207031 C 432.183594 423.953125 437.015625 424.378906 438.84375 425.332031 C 439.457031 425.652344 440.820312 425.914062 441.878906 425.914062 C 443.730469 425.917969 451.015625 427.414062 452.703125 428.140625 C 462.804688 432.476562 497.832031 432.851562 525.007812 428.914062 C 542.402344 426.394531 554.253906 424.578125 562.871094 423.109375 C 600.34375 416.730469 599.898438 416.789062 611.367188 416.796875 C 620.984375 416.808594 624.058594 417.144531 639.90625 419.933594 C 648.964844 421.523438 657.933594 422.898438 674.160156 425.179688 C 686.121094 426.859375 689.21875 427.457031 697.355469 429.644531 C 714.375 434.21875 718.171875 434.855469 728.503906 434.863281 C 742.664062 434.875 753.316406 433.058594 782.914062 425.578125 C 798.777344 421.566406 803.105469 420.0625 803.917969 418.285156 C 804.320312 417.398438 804.332031 417.40625 806.238281 419.34375 C 819.453125 432.8125 843.488281 434.972656 865.523438 424.671875 C 877.03125 419.296875 883.550781 411.671875 884.722656 402.226562 L 885 399.988281 L 886.085938 401.855469 C 903.210938 431.191406 919.453125 441.03125 950.652344 440.960938 C 968.132812 440.917969 993.367188 436.929688 1012.476562 431.1875 L 1016.109375 430.097656 L 1017.5 430.804688 C 1019.121094 431.632812 1022.609375 431.734375 1027.871094 431.113281 C 1034.515625 430.328125 1050.9375 428.125 1051.164062 427.984375 C 1052.824219 426.957031 1078.382812 425.785156 1093.710938 426.035156 C 1106.15625 426.234375 1113.164062 426.492188 1142.582031 427.84375 C 1154.769531 428.402344 1170.5625 428.398438 1183.617188 427.835938 C 1189.054688 427.601562 1201.140625 427.234375 1210.476562 427.027344 C 1229.308594 426.605469 1232.074219 426.464844 1257.480469 424.609375 C 1289.601562 422.269531 1295.503906 421.9375 1313.25 421.445312 C 1326.847656 421.070312 1344.621094 421.386719 1355.203125 422.195312 C 1361.222656 422.652344 1370.734375 423.609375 1371.910156 423.875 C 1372.726562 424.058594 1372.75 423.980469 1372.75 421.113281 L 1372.75 418.164062 L 1371.539062 417.941406 C 1369.722656 417.605469 1359.300781 416.679688 1351.488281 416.152344 C 1338.835938 415.304688 1297.902344 415.695312 1286.949219 416.765625 C 1285.757812 416.882812 1286.234375 416.675781 1288.597656 416.042969 C 1293.554688 414.710938 1294.988281 414.082031 1295.476562 413.019531 C 1296.371094 411.050781 1295.714844 409.128906 1293.917969 408.453125 C 1292.378906 407.871094 1254.527344 408.484375 1238.082031 409.355469 C 1189.082031 411.953125 1176.570312 407.027344 1150.847656 375.007812 C 1139.507812 360.894531 1135.90625 357.484375 1127.660156 353.046875 C 1117.816406 347.75 1107.367188 348.078125 1088.914062 354.257812 C 1059.398438 364.140625 1048.242188 361.039062 1017.242188 334.324219 C 998.902344 318.519531 981.457031 312.019531 961.675781 313.617188 C 947.382812 314.769531 938.867188 318.546875 928.144531 328.488281 C 918.074219 337.8125 916.203125 338.863281 912.742188 337.097656 C 907.773438 334.570312 899.03125 328.378906 897.21875 326.105469 C 896.648438 325.390625 896.035156 324.8125 895.851562 324.8125 C 895.667969 324.8125 894.066406 323.410156 892.289062 321.695312 C 879.414062 309.28125 863.722656 308.574219 835.378906 319.132812 C 819.007812 325.230469 814.203125 327.589844 791.546875 340.652344 C 759.992188 358.855469 747.460938 362.441406 732.328125 357.59375 L 728.777344 356.453125 L 723.882812 351.515625 C 704.46875 331.914062 658.308594 305.558594 656.375 312.964844 C 656.246094 313.453125 655.976562 313.636719 655.601562 313.492188 C 652.023438 312.121094 633.941406 311.5 625.542969 312.457031 C 604.039062 314.917969 587.570312 321 569.210938 333.265625 C 558.886719 340.164062 556.683594 341.285156 545.160156 345.5 C 541.519531 346.832031 538.347656 348.074219 538.117188 348.265625 C 535.546875 350.355469 520.058594 353.9375 506.355469 355.613281 C 499.328125 356.46875 491.375 357.9375 489.101562 358.796875 C 488.070312 359.1875 488.0625 359.3125 489.25 356.871094 C 495.640625 343.714844 499.960938 324.480469 503.359375 294.03125 C 505.167969 277.796875 505.265625 277.140625 506.921875 268.820312 C 510.144531 252.648438 514.378906 246.644531 524.957031 243.261719 C 526.417969 242.792969 530.050781 241.632812 533.027344 240.683594 C 546.507812 236.386719 552.050781 231.808594 552.050781 224.984375 C 552.050781 219.960938 551.804688 219.617188 538.199219 205.863281 C 524.207031 191.714844 523.488281 190.855469 505.605469 166.808594 C 492.917969 149.742188 483.542969 143.578125 475.765625 147.183594 M 483.648438 153.214844 C 487.199219 155.082031 490.390625 157.960938 494.964844 163.425781 C 497.0625 165.929688 509.886719 182.886719 511.765625 185.644531 C 512.074219 186.097656 512.574219 186.761719 512.882812 187.128906 C 513.191406 187.492188 513.863281 188.347656 514.378906 189.027344 C 518.6875 194.765625 523.15625 199.683594 534.703125 211.394531 C 545.949219 222.800781 546.886719 223.996094 546.097656 225.910156 C 544.75 229.164062 538.617188 232.699219 529.160156 235.675781 C 505.367188 243.164062 502.742188 247.734375 497.960938 289.925781 C 494.28125 322.449219 491.355469 336.300781 485.042969 351.113281 C 481.179688 360.167969 480.003906 361.988281 476.730469 363.949219 C 468.742188 368.738281 465.042969 375.542969 469.21875 377.777344 C 472.242188 379.398438 476.871094 376.558594 481.648438 370.148438 C 485.148438 365.453125 491.308594 363.332031 507.101562 361.398438 C 517.253906 360.160156 519.195312 359.882812 523.140625 359.125 C 529.292969 357.941406 533.597656 356.632812 540.863281 353.734375 C 544.660156 352.21875 549.441406 350.363281 551.492188 349.605469 C 558.097656 347.167969 565.363281 343.378906 572.199219 338.808594 C 590.582031 326.523438 602.714844 321.730469 621.8125 319.199219 C 624.992188 318.777344 628.3125 318.273438 629.1875 318.078125 C 631.28125 317.605469 643.769531 317.621094 646.410156 318.09375 C 660.152344 320.558594 660.726562 320.761719 669.40625 326.386719 C 677.308594 331.511719 679.238281 333.269531 682.832031 338.644531 C 698.769531 362.476562 693.027344 391.582031 670.121094 403.066406 C 663.59375 406.34375 653.382812 408.65625 640.835938 409.703125 C 636.582031 410.058594 635.738281 410.40625 635.449219 411.945312 C 635.246094 413.039062 635.082031 413.207031 634.386719 413.050781 C 627.824219 411.574219 618.472656 410.878906 608.246094 411.105469 C 597.507812 411.34375 592.671875 411.941406 572.757812 415.472656 C 510.476562 426.53125 479.75 428.242188 453.570312 422.117188 C 449.980469 421.277344 446.589844 420.511719 446.03125 420.414062 C 445.171875 420.265625 444.992188 420.015625 444.8125 418.695312 C 442.296875 400.421875 439.984375 385.71875 439.007812 381.769531 L 438.289062 378.851562 L 439.191406 375.019531 C 441.867188 363.699219 444.988281 356.222656 457.734375 330.59375 C 476.3125 293.230469 481.820312 276.734375 484.695312 249.820312 C 487.871094 220.007812 486.234375 197.414062 479.3125 175.761719 C 474.746094 161.464844 474.480469 156.183594 478.164062 153.082031 C 479.722656 151.773438 480.960938 151.804688 483.648438 153.214844 M 874.925781 318.648438 C 886.300781 321.871094 892.097656 328.335938 900.25 346.898438 C 908.898438 366.585938 914.09375 373.796875 928.457031 386.0625 C 960.113281 413.105469 968.355469 414.675781 1002.503906 400.175781 C 1022.03125 391.886719 1028.339844 390.125 1038.609375 390.109375 C 1045.578125 390.09375 1055.65625 391.738281 1059.578125 393.527344 C 1061.242188 394.285156 1061.027344 394.484375 1055.664062 397.28125 C 1045.179688 402.738281 1025.671875 415.613281 1018.660156 421.707031 C 1012.320312 427.210938 971.847656 435.238281 950.390625 435.242188 C 918.601562 435.25 904.433594 424.410156 883.332031 383.945312 C 877.347656 372.464844 875.964844 369.878906 872.378906 363.425781 C 860.03125 341.21875 852.789062 332.609375 846.855469 333.101562 C 843.375 333.390625 842.835938 334.28125 842.867188 339.652344 C 842.933594 350.039062 851.980469 365.808594 867.792969 383.082031 C 872.976562 388.742188 872.894531 388.148438 868.746094 390.050781 C 856.023438 395.875 842.648438 396.289062 827.050781 391.34375 C 815.441406 387.664062 803.617188 373.023438 799.816406 357.640625 C 797.976562 350.1875 796.75 344.851562 796.859375 344.746094 C 798.230469 343.4375 818.207031 332.757812 824.542969 329.949219 C 847.246094 319.882812 865.125 315.871094 874.925781 318.648438 M 979 320.679688 C 992.121094 323.378906 999.417969 327.550781 1017.296875 342.5625 C 1038.726562 360.558594 1048.003906 364.921875 1064.800781 364.902344 C 1074.117188 364.894531 1077.308594 364.234375 1095.578125 358.546875 C 1120.039062 350.925781 1126.355469 354.152344 1153.003906 387.863281 C 1158.058594 394.25 1166.664062 401.871094 1173.191406 405.734375 L 1177.089844 408.042969 L 1171.121094 407.820312 C 1142.160156 406.742188 1134.863281 405.640625 1115.351562 399.425781 C 1092.453125 392.132812 1075.402344 389.652344 1067.914062 392.527344 C 1067.480469 392.695312 1067.121094 392.371094 1066.617188 391.359375 C 1063.558594 385.1875 1037.691406 382.277344 1021.898438 386.324219 L 1019.089844 387.042969 L 1019.796875 385.867188 C 1024.710938 377.703125 1020.683594 363.421875 1010.394531 352.535156 C 1002.078125 343.742188 992.570312 340.324219 988.0625 344.507812 L 987.046875 345.445312 L 982.464844 344.652344 C 978.425781 343.953125 974.296875 343.53125 964.820312 342.859375 L 962.195312 342.671875 L 963.6875 339.667969 C 968.300781 330.378906 963.527344 323.710938 952.566406 324.132812 C 945.015625 324.421875 940.777344 327.433594 935.996094 335.902344 C 932.320312 342.40625 930.851562 343.292969 925.695312 342.089844 L 922.773438 341.410156 L 924.402344 340.234375 C 925.296875 339.585938 928.042969 337.175781 930.503906 334.875 C 940.910156 325.160156 946.972656 321.773438 956.480469 320.367188 C 957.992188 320.148438 959.652344 319.890625 960.164062 319.804688 C 962.777344 319.351562 975.425781 319.941406 979 320.679688 M 956.683594 330.382812 C 960.148438 331.957031 960.175781 334.15625 956.792969 339.164062 C 951.839844 346.488281 953.140625 348.070312 964.582031 348.664062 C 975.792969 349.246094 986.429688 350.847656 987.046875 352.042969 C 987.203125 352.355469 987.933594 353.917969 988.667969 355.523438 C 994.484375 368.289062 1005.316406 378.46875 1012.667969 378.085938 L 1015.820312 377.917969 L 1015.582031 379.441406 C 1014.699219 385.054688 1008.992188 390.871094 1000.992188 394.320312 C 972.039062 406.792969 964.957031 406.589844 946.78125 392.769531 C 926.980469 377.710938 917.753906 368.113281 911.046875 355.582031 C 909.199219 352.136719 904.207031 341.308594 904.207031 340.753906 C 904.207031 340.664062 905.003906 340.96875 905.980469 341.429688 C 906.957031 341.898438 908.675781 342.5625 909.800781 342.910156 C 910.929688 343.257812 913.714844 344.28125 915.988281 345.183594 C 930.097656 350.773438 935.390625 349.5625 941.140625 339.421875 C 945.78125 331.234375 951.382812 327.976562 956.683594 330.382812 M 855.980469 348.519531 C 860.796875 355.261719 875.917969 381.519531 874.988281 381.519531 C 874.738281 381.519531 866.996094 372.722656 864.316406 369.394531 C 856.421875 359.589844 849.707031 347.507812 848.457031 340.851562 C 848.117188 339.042969 852.164062 343.167969 855.980469 348.519531 M 700.152344 346.519531 C 710.394531 353.238281 716.863281 357.21875 720.5625 359.078125 C 732.050781 364.855469 731.253906 377.6875 717.96875 400.734375 C 705.449219 422.449219 702.136719 423.464844 666.488281 416.511719 L 654.652344 414.203125 L 658.035156 413.519531 C 666.410156 411.828125 674.914062 408.144531 681 403.578125 C 697.289062 391.347656 702.441406 365.09375 692.742188 343.707031 C 691.335938 340.605469 690.84375 340.414062 700.152344 346.519531 M 787.226562 354.003906 C 786.699219 362.363281 788.433594 377.988281 791.050781 388.421875 C 791.5625 390.472656 792.476562 394.707031 793.078125 397.828125 C 794.34375 404.386719 795.597656 408.90625 797.144531 412.550781 L 798.238281 415.125 L 797.285156 415.484375 C 792.65625 417.246094 764.539062 424.085938 753.683594 426.09375 C 750.8125 426.621094 747.875 427.210938 747.15625 427.40625 C 736.957031 430.125 720.570312 429.671875 708.859375 426.351562 L 703.957031 424.957031 L 706.679688 423.554688 C 713.457031 420.0625 720.785156 410.101562 728.667969 393.644531 C 733.96875 382.578125 735.828125 372.070312 733.574219 365.894531 C 733.246094 364.996094 732.980469 364.21875 732.980469 364.167969 C 732.980469 364.117188 734.113281 364.320312 735.496094 364.621094 C 747.96875 367.332031 765.738281 362.550781 785.578125 351.152344 C 786.5 350.625 787.304688 350.1875 787.363281 350.183594 C 787.417969 350.183594 787.359375 351.898438 787.226562 354.003906 M 1002.6875 357.363281 C 1009.132812 361 1013.507812 366.066406 1013.507812 369.875 C 1013.507812 376.371094 1002.589844 367.445312 995.230469 354.933594 L 994.40625 353.53125 L 997.523438 354.867188 C 999.234375 355.597656 1001.558594 356.722656 1002.6875 357.363281 M 276.1875 363.492188 C 279 364.191406 283.679688 366.003906 288.5 368.257812 C 309.722656 378.195312 319.898438 380.394531 344.640625 380.394531 C 368.746094 380.398438 379.53125 379.402344 401.570312 375.121094 C 419.507812 371.640625 423.363281 371.464844 427.40625 373.945312 C 429.671875 375.335938 432.425781 379.292969 431.964844 380.507812 C 429.554688 386.878906 430.871094 406.878906 434.332031 416.542969 C 434.65625 417.441406 434.917969 418.210938 434.917969 418.253906 C 434.917969 418.527344 410.703125 419.011719 397.984375 419 C 377.136719 418.980469 368.953125 418.242188 328.042969 412.699219 C 321.269531 411.78125 313.296875 410.769531 310.320312 410.445312 C 307.347656 410.121094 302.730469 409.585938 300.0625 409.246094 C 284.054688 407.21875 268.804688 408.835938 241.496094 415.464844 C 220.019531 420.671875 208.558594 421.71875 200.578125 419.191406 C 198.011719 418.378906 196.40625 417.371094 197.203125 417.074219 C 198.054688 416.753906 198.8125 415.773438 199.023438 414.71875 C 199.269531 413.492188 202.101562 412.144531 217.480469 405.941406 C 239.597656 397.027344 241.246094 395.734375 252.714844 378.449219 C 262.507812 363.695312 266.574219 361.101562 276.1875 363.492188 M 798.605469 375.921875 C 802.328125 385.03125 807.035156 389.808594 816.355469 393.925781 C 817.585938 394.464844 819.921875 395.671875 821.546875 396.597656 C 835.488281 404.554688 853.640625 404.210938 871.714844 395.652344 C 874.257812 394.441406 876.410156 393.457031 876.492188 393.457031 C 876.574219 393.457031 877.152344 394.554688 877.78125 395.894531 C 885.601562 412.605469 849.359375 431.160156 824.375 423.234375 C 813.082031 419.652344 804.476562 409.902344 798.902344 394.363281 C 797.601562 390.746094 796.011719 379.246094 795.472656 369.582031 L 795.253906 365.664062 L 796.511719 369.765625 C 797.199219 372.023438 798.140625 374.792969 798.605469 375.921875 M 173.015625 387.980469 C 174.082031 390.785156 170.390625 398.523438 165.570312 403.582031 L 163.664062 405.582031 L 163.855469 402.410156 C 164.183594 397.046875 166.460938 392.097656 170.109375 388.820312 C 172.273438 386.871094 172.5625 386.789062 173.015625 387.980469 M 1082.574219 397.578125 C 1088.308594 398.152344 1096.347656 399.90625 1104.53125 402.363281 C 1118.53125 406.566406 1125.640625 408.664062 1129.152344 409.628906 C 1137.449219 411.910156 1147.070312 412.945312 1167.761719 413.796875 C 1185.9375 414.535156 1190 414.914062 1209.992188 417.730469 C 1215.78125 418.542969 1223.5 419.511719 1227.152344 419.878906 L 1233.792969 420.550781 L 1228.195312 420.808594 C 1196.46875 422.238281 1145.632812 422.394531 1118.773438 421.144531 C 1083.722656 419.507812 1064.566406 420.117188 1037.628906 423.699219 C 1028.546875 424.910156 1027.488281 424.933594 1029.550781 423.871094 C 1031.578125 422.832031 1037.046875 419.042969 1042.972656 414.570312 C 1063.441406 399.132812 1070.007812 396.3125 1082.574219 397.578125 M 1252.726562 415 C 1251.648438 415.074219 1249.886719 415.074219 1248.808594 415 C 1247.730469 414.925781 1248.613281 414.863281 1250.765625 414.863281 C 1252.921875 414.863281 1253.800781 414.925781 1252.726562 415 " fill-opacity="1" fill-rule="evenodd"/></g><g fill="#8f0019" fill-opacity="1"><g transform="translate(452.302855, 586.919601)"><g><path d="M 93.417969 -39.003906 C 79.148438 -24.542969 61.453125 -24.164062 44.332031 -23.78125 C 41.855469 -23.78125 39.382812 -23.59375 36.910156 -23.59375 C 50.609375 -58.597656 62.976562 -117.007812 67.351562 -137.746094 C 67.542969 -138.699219 66.972656 -139.839844 65.640625 -140.980469 C 63.546875 -142.695312 58.027344 -145.738281 55.363281 -144.785156 C 54.605469 -144.597656 54.035156 -143.835938 53.84375 -143.074219 C 43.757812 -88.089844 31.011719 -43.757812 22.261719 -21.878906 C 13.507812 -19.785156 6.089844 -15.601562 1.140625 -6.089844 C 0.191406 -4.375 -0.191406 -2.472656 0 -0.761719 L 0 -0.191406 C 0 -0.191406 0 0 0.191406 0.191406 C 0.570312 2.664062 1.902344 4.757812 4.1875 6.089844 C 5.707031 7.230469 7.800781 7.800781 10.082031 7.800781 C 14.648438 7.800781 20.167969 5.328125 25.304688 -1.140625 C 28.730469 -5.328125 32.34375 -12.175781 35.769531 -20.738281 C 38.433594 -20.738281 41.476562 -20.929688 44.332031 -20.929688 C 61.261719 -21.308594 80.289062 -21.6875 95.320312 -37.101562 C 95.890625 -37.671875 95.890625 -38.621094 95.320312 -39.003906 C 94.75 -39.574219 93.796875 -39.574219 93.417969 -39.003906 Z M 16.171875 -9.132812 C 10.65625 -1.140625 5.898438 1.332031 4.1875 0.953125 C 3.804688 0.953125 3.234375 0.761719 2.855469 -0.378906 C 2.664062 -1.902344 2.855469 -3.425781 3.613281 -4.757812 C 7.800781 -12.746094 13.699219 -16.550781 20.929688 -18.644531 C 19.214844 -14.269531 17.503906 -11.226562 16.171875 -9.132812 Z M 16.171875 -9.132812 "/></g></g></g><g fill="#8f0019" fill-opacity="1"><g transform="translate(544.760165, 586.919601)"><g><path d="M 69.0625 -39.382812 C 68.304688 -39.574219 67.542969 -39.191406 67.351562 -38.621094 C 64.6875 -25.113281 59.359375 -6.660156 53.652344 3.613281 C 52.703125 4.757812 50.226562 7.609375 47.566406 6.089844 C 46.234375 5.328125 44.332031 -2.09375 46.804688 -20.738281 C 48.894531 -37.101562 53.652344 -54.792969 59.171875 -67.921875 C 60.3125 -70.964844 59.550781 -74.773438 56.507812 -77.433594 L 53.652344 -80.097656 C 52.703125 -81.050781 51.179688 -81.621094 49.847656 -81.621094 C 48.515625 -81.429688 47.566406 -80.859375 46.613281 -79.71875 C 43.949219 -74.582031 41.097656 -67.351562 38.8125 -58.980469 L 38.8125 -59.359375 C 37.671875 -63.925781 35.007812 -67.351562 31.582031 -69.0625 C 28.917969 -70.207031 24.925781 -70.207031 20.929688 -68.683594 C 15.601562 -66.589844 5.707031 -60.3125 0.570312 -41.476562 C -3.234375 -25.683594 -0.570312 -17.125 1.902344 -12.558594 C 4.945312 -7.992188 8.941406 -6.847656 10.464844 -6.46875 C 11.226562 -6.277344 11.796875 -6.277344 12.558594 -6.277344 C 16.742188 -6.277344 21.6875 -8.75 26.253906 -15.03125 C 26.445312 -15.410156 26.636719 -15.601562 27.015625 -15.792969 C 27.015625 -15.980469 27.207031 -15.980469 27.207031 -16.171875 C 29.300781 -19.214844 31.394531 -22.832031 33.296875 -27.585938 C 32.535156 -16.550781 32.34375 -0.191406 37.480469 8.371094 C 39.382812 11.605469 41.855469 13.507812 45.089844 13.890625 L 45.851562 13.890625 C 51.941406 13.890625 57.457031 5.515625 63.355469 -11.605469 C 67.542969 -24.351562 70.207031 -37.480469 70.394531 -37.671875 C 70.207031 -38.433594 69.824219 -39.191406 69.0625 -39.382812 Z M 37.101562 -51.371094 C 36.148438 -47.566406 35.578125 -43.757812 35.007812 -39.765625 C 31.582031 -29.871094 28.160156 -22.640625 24.734375 -17.695312 C 21.6875 -13.699219 18.074219 -13.507812 16.550781 -14.460938 C 14.839844 -15.410156 10.84375 -17.695312 15.410156 -39.574219 C 19.597656 -60.121094 28.539062 -63.546875 31.394531 -63.164062 C 33.484375 -62.785156 35.386719 -60.691406 36.148438 -58.597656 C 36.71875 -56.695312 37.101562 -54.222656 37.101562 -51.371094 Z M 37.101562 -51.371094 "/></g></g></g><g fill="#8f0019" fill-opacity="1"><g transform="translate(612.295831, 586.919601)"><g/></g></g><g fill="#8f0019" fill-opacity="1"><g transform="translate(679.831497, 586.919601)"><g><path d="M 93.035156 -132.230469 C 90.945312 -137.175781 87.710938 -140.21875 83.144531 -141.363281 C 77.246094 -142.882812 70.585938 -141.363281 63.738281 -138.128906 L 63.738281 -137.9375 C 49.085938 -130.707031 34.246094 -114.535156 25.496094 -100.074219 C 28.917969 -111.683594 32.914062 -122.527344 37.480469 -132.417969 C 39.191406 -136.035156 39.003906 -140.21875 37.101562 -143.835938 L 35.769531 -146.5 C 35.007812 -147.640625 33.675781 -148.589844 32.152344 -148.589844 C 30.820312 -148.402344 29.488281 -147.640625 28.730469 -146.308594 C 12.367188 -114.15625 1.902344 -63.164062 0 -6.277344 C -0.191406 -2.664062 1.902344 0.761719 5.136719 2.09375 L 6.660156 2.855469 C 7.039062 3.042969 7.609375 3.234375 8.179688 3.234375 C 8.941406 3.234375 9.703125 3.042969 10.273438 2.664062 C 11.414062 1.902344 12.175781 0.570312 12.175781 -0.761719 C 12.367188 -31.203125 15.601562 -59.359375 21.5 -84.664062 L 21.5 -84.855469 C 25.683594 -100.074219 46.042969 -125.949219 64.878906 -135.464844 C 65.066406 -135.464844 76.101562 -139.269531 80.859375 -134.132812 C 85.425781 -129.566406 83.332031 -95.507812 63.355469 -57.269531 C 58.789062 -48.515625 53.84375 -40.523438 48.894531 -33.675781 C 34.4375 -33.675781 23.59375 -27.777344 19.214844 -21.5 C 16.363281 -17.125 15.980469 -12.558594 18.074219 -8.371094 C 19.976562 -4.566406 23.210938 -2.664062 27.207031 -2.664062 L 27.585938 -2.664062 C 37.480469 -2.664062 51.558594 -13.507812 63.925781 -29.871094 L 64.117188 -29.871094 C 82.382812 -29.871094 92.847656 -36.53125 93.417969 -36.910156 C 93.988281 -37.289062 94.179688 -38.242188 93.796875 -38.8125 C 93.417969 -39.574219 92.464844 -39.765625 91.894531 -39.191406 C 91.703125 -39.191406 82.382812 -33.296875 66.019531 -32.722656 C 68.492188 -36.148438 70.777344 -39.574219 73.058594 -43.378906 C 86.949219 -67.160156 101.40625 -112.441406 93.035156 -132.230469 Z M 39.574219 -22.070312 C 32.722656 -14.460938 26.253906 -10.082031 22.449219 -10.464844 C 21.6875 -10.464844 20.359375 -10.84375 19.597656 -12.9375 C 19.214844 -15.601562 20.359375 -18.074219 21.5 -19.785156 C 25.304688 -25.304688 34.4375 -30.441406 46.804688 -30.820312 C 44.332031 -27.585938 42.046875 -24.734375 39.574219 -22.070312 Z M 39.574219 -22.070312 "/></g></g></g><g fill="#8f0019" fill-opacity="1"><g transform="translate(770.005858, 586.919601)"><g><path d="M 69.0625 -39.382812 C 68.304688 -39.574219 67.542969 -39.191406 67.351562 -38.621094 C 64.6875 -25.113281 59.359375 -6.660156 53.652344 3.613281 C 52.703125 4.757812 50.226562 7.609375 47.566406 6.089844 C 46.234375 5.328125 44.332031 -2.09375 46.804688 -20.738281 C 48.894531 -37.101562 53.652344 -54.792969 59.171875 -67.921875 C 60.3125 -70.964844 59.550781 -74.773438 56.507812 -77.433594 L 53.652344 -80.097656 C 52.703125 -81.050781 51.179688 -81.621094 49.847656 -81.621094 C 48.515625 -81.429688 47.566406 -80.859375 46.613281 -79.71875 C 43.949219 -74.582031 41.097656 -67.351562 38.8125 -58.980469 L 38.8125 -59.359375 C 37.671875 -63.925781 35.007812 -67.351562 31.582031 -69.0625 C 28.917969 -70.207031 24.925781 -70.207031 20.929688 -68.683594 C 15.601562 -66.589844 5.707031 -60.3125 0.570312 -41.476562 C -3.234375 -25.683594 -0.570312 -17.125 1.902344 -12.558594 C 4.945312 -7.992188 8.941406 -6.847656 10.464844 -6.46875 C 11.226562 -6.277344 11.796875 -6.277344 12.558594 -6.277344 C 16.742188 -6.277344 21.6875 -8.75 26.253906 -15.03125 C 26.445312 -15.410156 26.636719 -15.601562 27.015625 -15.792969 C 27.015625 -15.980469 27.207031 -15.980469 27.207031 -16.171875 C 29.300781 -19.214844 31.394531 -22.832031 33.296875 -27.585938 C 32.535156 -16.550781 32.34375 -0.191406 37.480469 8.371094 C 39.382812 11.605469 41.855469 13.507812 45.089844 13.890625 L 45.851562 13.890625 C 51.941406 13.890625 57.457031 5.515625 63.355469 -11.605469 C 67.542969 -24.351562 70.207031 -37.480469 70.394531 -37.671875 C 70.207031 -38.433594 69.824219 -39.191406 69.0625 -39.382812 Z M 37.101562 -51.371094 C 36.148438 -47.566406 35.578125 -43.757812 35.007812 -39.765625 C 31.582031 -29.871094 28.160156 -22.640625 24.734375 -17.695312 C 21.6875 -13.699219 18.074219 -13.507812 16.550781 -14.460938 C 14.839844 -15.410156 10.84375 -17.695312 15.410156 -39.574219 C 19.597656 -60.121094 28.539062 -63.546875 31.394531 -63.164062 C 33.484375 -62.785156 35.386719 -60.691406 36.148438 -58.597656 C 36.71875 -56.695312 37.101562 -54.222656 37.101562 -51.371094 Z M 37.101562 -51.371094 "/></g></g></g><g fill="#8f0019" fill-opacity="1"><g transform="translate(837.541524, 586.919601)"><g><path d="M 95.699219 -39.382812 C 94.9375 -39.765625 94.179688 -39.382812 93.796875 -38.8125 C 88.089844 -28.917969 84.09375 -23.59375 81.050781 -20.929688 C 81.050781 -20.929688 80.859375 -20.929688 80.859375 -20.738281 C 78.386719 -18.644531 76.863281 -18.265625 75.914062 -18.453125 C 73.441406 -18.835938 71.917969 -22.640625 71.15625 -25.683594 C 68.875 -35.199219 72.867188 -49.085938 75.53125 -58.21875 C 77.054688 -63.355469 77.816406 -65.828125 77.625 -67.160156 C 76.863281 -70.585938 73.441406 -75.914062 66.589844 -76.292969 C 61.453125 -76.675781 53.082031 -66.398438 50.609375 -63.355469 C 46.992188 -58.789062 44.140625 -54.035156 41.855469 -49.65625 C 42.425781 -52.890625 43.1875 -55.9375 43.757812 -58.597656 C 45.089844 -64.308594 46.234375 -68.683594 45.28125 -72.679688 C 44.710938 -74.960938 42.046875 -77.433594 39.003906 -78.386719 C 36.339844 -79.148438 33.867188 -78.578125 31.964844 -76.675781 C 24.351562 -69.253906 15.980469 -51.558594 11.226562 -36.910156 C 12.558594 -49.277344 15.410156 -60.3125 19.214844 -69.445312 C 20.546875 -72.488281 19.597656 -75.914062 16.933594 -77.816406 L 14.269531 -79.71875 C 13.316406 -80.480469 12.175781 -80.667969 10.84375 -80.289062 C 9.703125 -79.910156 8.75 -78.957031 8.371094 -77.816406 C 3.234375 -62.785156 -2.09375 -33.105469 -1.710938 -11.226562 C -1.523438 -7.609375 0.953125 -4.375 4.566406 -3.613281 C 4.945312 -3.425781 5.328125 -3.425781 5.515625 -3.425781 C 6.660156 -3.425781 7.609375 -3.804688 8.371094 -4.375 C 9.324219 -5.328125 9.894531 -6.46875 9.894531 -7.992188 C 9.894531 -11.796875 9.894531 -15.792969 10.082031 -19.40625 C 10.84375 -31.582031 22.449219 -62.023438 32.914062 -73.628906 L 33.105469 -73.628906 C 33.296875 -74.011719 33.867188 -74.199219 34.054688 -74.011719 C 34.4375 -73.820312 35.007812 -72.488281 34.054688 -69.445312 C 32.34375 -64.308594 27.777344 -46.042969 27.398438 -32.722656 C 27.398438 -30.820312 28.160156 -28.917969 29.488281 -27.398438 C 30.820312 -26.066406 32.722656 -25.304688 34.816406 -25.304688 C 36.339844 -25.113281 37.863281 -25.875 39.003906 -26.828125 C 39.953125 -27.96875 40.523438 -29.300781 40.523438 -30.632812 C 40.335938 -33.296875 40.335938 -35.769531 40.523438 -38.242188 C 40.523438 -38.242188 40.714844 -38.433594 40.714844 -38.621094 C 43.1875 -51.558594 57.457031 -68.875 64.117188 -72.679688 L 64.308594 -72.867188 C 64.496094 -72.867188 64.878906 -73.058594 65.257812 -72.679688 C 66.019531 -71.917969 66.398438 -69.824219 64.878906 -66.019531 C 62.59375 -59.929688 55.175781 -31.964844 60.3125 -20.359375 C 62.40625 -15.03125 66.210938 -13.507812 68.875 -13.128906 C 69.445312 -12.9375 70.015625 -12.9375 70.777344 -12.9375 C 74.960938 -12.9375 79.71875 -15.21875 82.953125 -18.835938 L 82.953125 -19.027344 C 86.757812 -22.449219 91.132812 -28.539062 96.082031 -37.480469 C 96.460938 -38.050781 96.269531 -39.003906 95.699219 -39.382812 Z M 95.699219 -39.382812 "/></g></g></g><g fill="#8f0019" fill-opacity="1"><g transform="translate(930.95, 586.919601)"><g><path d="M 58.980469 -39.003906 C 58.410156 -39.382812 57.648438 -39.191406 57.078125 -38.621094 C 41.097656 -17.3125 31.394531 -8.75 23.210938 -5.707031 L 23.019531 -5.707031 C 19.597656 -4.757812 16.550781 -5.515625 14.460938 -7.992188 C 10.273438 -12.746094 10.082031 -22.640625 13.890625 -33.675781 C 17.695312 -34.4375 32.914062 -37.863281 39.765625 -50.609375 C 41.855469 -54.792969 42.238281 -58.21875 41.855469 -60.882812 C 41.855469 -61.453125 41.667969 -62.214844 41.476562 -62.785156 C 41.097656 -63.925781 40.714844 -64.6875 40.335938 -65.449219 C 38.242188 -68.875 34.4375 -70.964844 30.632812 -70.964844 C 21.878906 -70.964844 9.324219 -62.214844 0 -38.242188 C -5.515625 -23.78125 -2.664062 -14.839844 0.761719 -9.894531 C 4.945312 -3.804688 11.226562 -1.523438 15.21875 -1.523438 C 18.074219 -1.523438 20.929688 -2.09375 23.78125 -3.042969 C 23.78125 -3.042969 23.972656 -3.042969 23.972656 -3.234375 C 33.867188 -6.660156 44.140625 -16.933594 59.359375 -36.910156 C 59.742188 -37.671875 59.742188 -38.433594 58.980469 -39.003906 Z M 15.410156 -37.480469 C 23.402344 -56.695312 30.0625 -62.40625 34.246094 -63.738281 C 35.578125 -64.308594 36.71875 -64.117188 37.671875 -63.546875 L 38.8125 -62.023438 C 39.765625 -59.171875 39.191406 -55.554688 37.289062 -51.941406 C 31.773438 -41.855469 20.167969 -38.050781 15.03125 -36.910156 Z M 15.410156 -37.480469 "/></g></g></g></svg>