<?xml version="1.0" standalone="no"?>
<!DOCTYPE svg PUBLIC "-//W3C//DTD SVG 20010904//EN"
 "http://www.w3.org/TR/2001/REC-SVG-20010904/DTD/svg10.dtd">
<svg version="1.0" xmlns="http://www.w3.org/2000/svg"
 width="666.000000pt" height="375.000000pt" viewBox="0 0 666.000000 375.000000"
 preserveAspectRatio="xMidYMid meet">

<g transform="translate(0.000000,375.000000) scale(0.100000,-0.100000)"
fill="#000000" stroke="none">
<path d="M2507 2926 c-5 -13 -2 -28 25 -131 15 -59 3 -229 -21 -298 -11 -32
-40 -99 -65 -150 -24 -51 -48 -105 -51 -119 -6 -24 -9 -26 -30 -16 -17 7 -44
6 -102 -6 -44 -9 -120 -16 -169 -16 -75 0 -101 5 -168 31 -91 35 -116 33 -144
-13 -12 -18 -34 -45 -50 -61 -31 -30 -168 -87 -208 -87 -24 0 -32 14 -15 24
15 9 30 62 21 76 -15 24 -48 -7 -57 -53 -7 -37 -14 -45 -53 -64 -34 -18 -61
-23 -121 -23 -43 0 -89 4 -103 10 -16 6 -26 6 -26 0 0 -13 65 -25 140 -25 50
0 77 6 119 27 41 20 59 24 73 17 10 -6 28 -7 39 -4 11 4 36 -1 56 -10 34 -17
41 -17 122 1 109 23 232 29 307 14 33 -7 138 -16 234 -21 398 -22 386 -23 554
6 l156 26 152 -27 c202 -36 281 -40 376 -19 42 10 85 21 94 26 12 6 28 3 53
-12 67 -40 185 -13 217 49 l16 33 32 -46 c43 -63 92 -85 190 -85 41 0 104 7
140 15 62 15 707 38 1108 39 78 1 142 4 142 9 0 4 -64 7 -142 8 -79 0 -137 3
-130 6 40 16 -7 22 -155 20 -158 -2 -171 -1 -211 21 -23 12 -59 44 -80 70 -78
101 -123 118 -226 87 -93 -28 -114 -22 -252 80 -63 46 -73 50 -133 53 -67 3
-88 -5 -177 -73 -9 -6 -24 0 -51 23 -69 59 -94 67 -159 53 -32 -7 -118 -44
-192 -82 -164 -84 -190 -87 -256 -30 -83 72 -161 112 -226 118 -79 6 -162 -12
-230 -49 -116 -64 -157 -81 -230 -94 -41 -7 -76 -12 -77 -10 -1 1 5 21 13 45
8 24 23 100 34 168 20 139 34 163 99 184 73 23 79 48 25 100 -20 18 -61 67
-90 106 -30 40 -63 77 -74 83 -26 14 -57 12 -63 -4z m60 -13 c11 -10 37 -40
59 -68 21 -27 60 -74 87 -103 57 -61 55 -67 -27 -97 -60 -22 -71 -45 -91 -193
-19 -131 -40 -198 -72 -228 -14 -13 -23 -28 -21 -35 2 -7 15 -2 32 14 16 15
45 29 65 32 87 13 139 27 181 49 25 13 72 37 105 55 42 22 81 33 127 38 93 8
131 -2 177 -45 64 -60 68 -151 10 -210 -37 -37 -96 -52 -236 -56 -54 -2 -132
-11 -173 -21 -90 -20 -280 -30 -335 -18 -38 9 -40 11 -48 58 -15 101 -12 119
47 244 81 173 87 193 93 318 5 87 2 129 -11 184 -23 94 -13 121 31 82z m1309
-550 c14 -9 41 -49 60 -90 28 -58 48 -84 96 -124 96 -80 124 -84 245 -34 63
25 166 35 177 16 3 -5 -18 -23 -46 -40 -29 -17 -64 -40 -78 -51 -57 -46 -262
-65 -336 -31 -43 20 -104 100 -159 211 -27 54 -71 110 -87 110 -27 0 5 -82 53
-138 16 -18 29 -37 29 -42 0 -16 -67 -31 -111 -24 -54 9 -112 62 -128 118 -13
47 -11 51 42 78 111 56 198 71 243 41z m364 -8 c14 -7 48 -32 75 -54 89 -74
148 -87 249 -56 86 26 91 24 189 -76 l88 -92 -73 6 c-40 3 -102 15 -138 26
-36 11 -85 21 -110 21 -26 0 -52 6 -59 13 -7 7 -37 12 -75 11 -55 0 -63 2 -59
17 7 24 -26 88 -54 106 -13 9 -48 16 -81 17 -53 1 -57 3 -54 23 6 45 -62 48
-90 3 -7 -11 -22 -20 -33 -20 -17 1 -15 5 15 31 19 16 49 34 65 39 36 11 110
3 145 -15z m-125 -44 c-6 -28 -5 -28 46 -33 37 -4 55 -11 62 -24 14 -25 58
-69 77 -77 12 -4 7 -13 -19 -35 -36 -33 -111 -57 -144 -46 -32 10 -119 78
-147 116 -64 84 -65 101 -4 79 l46 -16 25 33 c14 17 34 32 45 32 16 0 19 -5
13 -29z m-300 -82 c15 -28 25 -53 22 -55 -6 -6 -87 114 -87 129 0 19 37 -23
65 -74z m-467 8 c19 -14 14 -57 -12 -112 -37 -79 -53 -89 -133 -82 -75 7 -99
21 -57 31 75 19 111 79 101 172 l-6 54 47 -27 c26 -14 53 -31 60 -36z m212 -9
c0 -24 7 -70 15 -103 8 -33 14 -63 15 -67 0 -11 -174 -48 -228 -48 -80 0 -87
6 -53 45 33 38 73 137 65 160 -5 12 3 15 37 15 24 0 62 9 84 19 59 29 65 27
65 -21z m718 16 c21 -15 30 -44 14 -44 -5 0 -16 8 -24 18 -36 42 -31 55 10 26z
m-2358 -38 c58 -26 208 -33 338 -16 114 16 120 12 123 -80 l3 -65 -74 -3 c-40
-2 -152 6 -247 18 -177 21 -216 20 -338 -10 -53 -13 -125 -13 -125 0 0 6 28
24 63 39 58 26 137 97 137 123 0 12 42 26 60 20 8 -3 35 -14 60 -26z m1685
-38 c14 -23 103 -68 134 -68 14 1 44 7 66 15 48 17 64 7 47 -30 -14 -31 -83
-64 -132 -65 -76 0 -141 77 -139 165 1 27 3 33 7 20 4 -11 12 -27 17 -37z
m-2095 -57 c-10 -20 -30 -29 -30 -13 0 4 8 18 17 32 19 27 30 12 13 -19z
m3119 -15 c53 -13 156 -29 229 -35 73 -6 141 -15 150 -21 12 -7 -80 -9 -293
-8 -170 0 -323 -3 -340 -7 -34 -9 -31 -4 31 43 77 59 92 61 223 28z"/>
<path d="M3237 1883 c-19 -54 -40 -114 -46 -133 -23 -75 -52 -281 -58 -406 -6
-128 -5 -132 16 -143 28 -15 28 -14 35 128 7 134 39 317 67 376 11 23 52 78
90 121 l71 79 -82 -85 -81 -85 26 70 c49 128 48 125 36 151 -20 45 -37 28 -74
-73z"/>
<path d="M2217 1953 c-3 -5 -8 -28 -12 -53 -24 -153 -135 -554 -159 -575 -6
-5 -10 -18 -8 -27 4 -21 -67 -101 -85 -94 -16 7 -17 -6 -1 -22 35 -35 99 6
138 87 l25 50 60 2 60 2 -56 6 -56 6 33 105 c18 58 54 192 80 299 45 186 46
195 28 208 -20 14 -40 17 -47 6z"/>
<path d="M3476 1935 c-21 -7 -43 -18 -48 -23 -6 -6 10 -3 35 6 41 15 46 15 71
-1 33 -22 34 -59 6 -176 -26 -108 -63 -198 -117 -288 -40 -66 -48 -73 -76 -73
-18 0 -39 -5 -47 -11 -11 -7 -5 -8 23 -3 20 3 37 2 37 -2 -1 -13 -66 -81 -89
-93 -29 -16 -41 -13 -51 12 -7 18 -9 19 -9 4 -4 -90 123 -66 207 40 27 35 39
41 79 46 27 3 58 8 69 12 20 6 22 2 26 -51 5 -63 23 -84 68 -84 30 0 62 27 87
73 l18 32 6 -88 c6 -91 23 -127 59 -127 27 0 67 57 84 120 4 14 -6 0 -21 -30
-38 -74 -57 -73 -61 4 -4 78 13 180 45 277 26 76 26 79 8 99 -10 11 -23 20
-30 20 -11 0 -32 -40 -50 -95 -6 -19 -8 -18 -27 8 -14 19 -28 27 -51 27 -40 0
-111 -72 -124 -126 -8 -37 -11 -40 -65 -53 -32 -8 -60 -13 -62 -10 -3 3 17 50
44 104 58 118 90 233 90 326 0 79 -12 112 -47 128 -30 14 -39 13 -87 -4z m304
-415 c15 -29 -3 -119 -37 -183 -22 -41 -33 -52 -53 -52 -22 0 -25 5 -28 40
-11 127 77 272 118 195z"/>
<path d="M2644 1583 c-10 -27 -21 -52 -24 -58 -4 -5 -10 -34 -14 -62 -4 -29
-16 -74 -26 -100 -11 -27 -14 -40 -6 -30 12 15 14 8 18 -60 7 -122 47 -163
100 -104 15 17 28 37 27 44 0 6 -5 2 -11 -10 -11 -24 -34 -36 -49 -27 -25 15
-1 211 40 328 26 73 26 88 3 109 -29 26 -39 21 -58 -30z"/>
<path d="M3989 1603 c-10 -26 -19 -67 -48 -213 -6 -30 -14 -66 -17 -80 -5 -20
-3 -22 5 -10 9 12 11 9 11 -15 0 -33 15 -55 37 -55 8 0 13 13 13 38 0 33 15
104 35 167 4 14 2 12 -9 -5 -21 -34 -20 -18 4 75 25 97 25 102 0 115 -17 9
-22 7 -31 -17z"/>
<path d="M4118 1609 c-10 -5 -23 -20 -29 -32 -10 -20 -9 -20 9 2 26 33 34 14
18 -47 -8 -28 -17 -78 -21 -111 -6 -52 -4 -61 12 -69 27 -14 43 -4 43 26 1 15
7 44 14 64 8 21 10 35 5 32 -5 -3 -6 10 -2 28 13 59 9 90 -12 104 -14 9 -25
10 -37 3z"/>
<path d="M4237 1563 c-21 -20 -43 -46 -49 -57 -6 -12 11 4 39 34 28 30 54 52
58 48 4 -4 0 -39 -10 -77 -24 -97 -24 -185 0 -211 27 -30 60 -25 103 16 33 32
33 33 4 11 -18 -15 -39 -24 -46 -21 -31 12 -33 80 -7 181 16 63 17 74 4 92
-21 31 -54 26 -96 -16z"/>
<path d="M4555 1566 c-56 -24 -140 -163 -137 -226 4 -73 44 -120 103 -120 21
0 21 1 -5 25 -19 18 -26 34 -26 62 0 58 9 79 38 91 20 8 21 10 5 6 -29 -7 -29
-4 2 55 27 54 69 93 91 84 8 -3 14 0 14 6 0 9 -42 33 -53 31 -1 -1 -16 -7 -32
-14z"/>
<path d="M2514 1560 c-28 -11 -71 -67 -85 -111 -15 -43 -27 -58 -64 -81 -16
-10 -25 -18 -19 -18 6 0 23 9 36 20 l26 19 4 -49 c3 -28 13 -59 23 -70 31 -34
93 -22 116 23 12 21 11 21 -8 5 -47 -42 -71 -8 -59 85 14 102 72 180 111 147
21 -18 19 4 -3 23 -20 18 -45 21 -78 7z"/>
<path d="M4045 1499 c-9 -17 -15 -33 -13 -35 3 -2 12 12 21 31 21 43 13 47 -8
4z"/>
<path d="M4641 1514 c0 -11 3 -14 6 -6 3 7 2 16 -1 19 -3 4 -6 -2 -5 -13z"/>
<path d="M4621 1467 c-7 -13 -24 -31 -39 -40 -15 -9 -22 -17 -15 -17 13 0 73
57 73 71 0 15 -6 10 -19 -14z"/>
<path d="M2766 1395 c-3 -9 -6 -22 -5 -28 0 -7 5 -1 10 12 5 13 8 26 5 28 -2
2 -6 -3 -10 -12z"/>
<path d="M4695 1360 c-20 -27 -40 -50 -43 -50 -4 0 -16 -13 -26 -28 -17 -23
-14 -23 16 7 35 32 104 121 94 121 -2 0 -21 -22 -41 -50z"/>
<path d="M2751 1334 c0 -11 3 -14 6 -6 3 7 2 16 -1 19 -3 4 -6 -2 -5 -13z"/>
<path d="M3234 1328 l-19 -23 23 19 c21 18 27 26 19 26 -2 0 -12 -10 -23 -22z"/>
<path d="M2263 1333 c9 -2 23 -2 30 0 6 3 -1 5 -18 5 -16 0 -22 -2 -12 -5z"/>
<path d="M1970 1275 c-46 -47 -35 -49 13 -2 21 20 34 37 30 37 -5 0 -24 -16
-43 -35z"/>
<path d="M2732 1273 c-15 -48 -8 -55 8 -8 7 20 10 38 8 41 -3 2 -10 -13 -16
-33z"/>
</g>
</svg>
